<svg width="21" height="19" viewBox="0 0 21 19" fill="none" xmlns="http://www.w3.org/2000/svg">
<path d="M7.73926 13.6562H17.9697C18.3828 13.6562 18.7607 13.3311 18.7607 12.8652C18.7607 12.4082 18.3828 12.083 17.9697 12.083H7.94141C7.51953 12.083 7.25586 11.793 7.19434 11.3447L7.0625 10.4307H18.04C19.3848 10.4307 20.0967 9.61328 20.29 8.27734L20.9492 3.87402C20.9668 3.75977 20.9844 3.61035 20.9844 3.51367C20.9844 2.99512 20.624 2.64355 20.0176 2.64355H5.92871L5.79688 1.69434C5.68262 0.929688 5.375 0.542969 4.39941 0.542969H1.38477C0.945312 0.542969 0.558594 0.929688 0.558594 1.37793C0.558594 1.83496 0.945312 2.22168 1.38477 2.22168H4.13574L5.49805 11.5205C5.69141 12.8477 6.39453 13.6562 7.73926 13.6562ZM19.1562 4.2168L18.6025 8.11914C18.5322 8.56738 18.2949 8.84863 17.8643 8.84863L6.83398 8.85742L6.15723 4.2168H19.1562ZM8.45996 18.0684C9.3125 18.0684 9.99805 17.3828 9.99805 16.5303C9.99805 15.6777 9.3125 14.9922 8.45996 14.9922C7.60742 14.9922 6.92188 15.6777 6.92188 16.5303C6.92188 17.3828 7.60742 18.0684 8.45996 18.0684ZM16.5811 18.0684C17.4336 18.0684 18.1104 17.3828 18.1104 16.5303C18.1104 15.6777 17.4336 14.9922 16.5811 14.9922C15.7285 14.9922 15.0342 15.6777 15.0342 16.5303C15.0342 17.3828 15.7285 18.0684 16.5811 18.0684Z" fill="#EA7C69"/>
</svg>
