<svg width="34" height="32" viewBox="0 0 34 32" fill="none" xmlns="http://www.w3.org/2000/svg">
<path d="M28.6667 0.333374H5.33337C2.57671 0.333374 0.333374 2.57671 0.333374 5.33337V10.0517C0.333374 11.8067 0.970041 13.4017 2.00004 14.6284V30.3334C2.00004 30.7754 2.17564 31.1993 2.4882 31.5119C2.80076 31.8244 3.22468 32 3.66671 32H17C17.4421 32 17.866 31.8244 18.1786 31.5119C18.4911 31.1993 18.6667 30.7754 18.6667 30.3334V22H25.3334V30.3334C25.3334 30.7754 25.509 31.1993 25.8215 31.5119C26.1341 31.8244 26.558 32 27 32H30.3334C30.7754 32 31.1993 31.8244 31.5119 31.5119C31.8244 31.1993 32 30.7754 32 30.3334V14.6267C33.03 13.4017 33.6667 11.8067 33.6667 10.05V5.33337C33.6667 2.57671 31.4234 0.333374 28.6667 0.333374ZM30.3334 5.33337V10.0517C30.3334 11.9517 28.9184 13.5717 27.1817 13.6634L27 13.6667C25.1617 13.6667 23.6667 12.1717 23.6667 10.3334V3.66671H28.6667C29.5867 3.66671 30.3334 4.41504 30.3334 5.33337ZM13.6667 10.3334V3.66671H20.3334V10.3334C20.3334 12.1717 18.8384 13.6667 17 13.6667C15.1617 13.6667 13.6667 12.1717 13.6667 10.3334ZM3.66671 5.33337C3.66671 4.41504 4.41337 3.66671 5.33337 3.66671H10.3334V10.3334C10.3334 12.1717 8.83837 13.6667 7.00004 13.6667L6.81837 13.6617C5.08171 13.5717 3.66671 11.9517 3.66671 10.0517V5.33337ZM13.6667 23.6667H7.00004V18.6667H13.6667V23.6667Z" fill="url(#paint0_linear_2702_687)"/>
<defs>
<linearGradient id="paint0_linear_2702_687" x1="17" y1="0.333374" x2="17" y2="32" gradientUnits="userSpaceOnUse">
<stop stop-color="#EA9769"/>
<stop offset="1" stop-color="#EA6969"/>
</linearGradient>
</defs>
</svg>
